<svg width="17" height="21" viewBox="0 0 17 21" fill="none" xmlns="http://www.w3.org/2000/svg">
<path d="M8.70234 11.9625L8.70937 11.9297C8.84531 11.3695 9.01641 10.6711 8.88281 10.0383C8.79375 9.53906 8.42578 9.34453 8.11172 9.33047C7.74141 9.31406 7.41094 9.525 7.32891 9.83203C7.17422 10.3945 7.3125 11.1633 7.56562 12.143C7.24687 12.9023 6.73828 14.0062 6.36563 14.6625C5.67188 15.0211 4.74141 15.5742 4.60312 16.2727C4.575 16.4016 4.60781 16.5656 4.68516 16.7133C4.77187 16.8773 4.91016 17.0039 5.07187 17.0648C5.14219 17.0906 5.22656 17.1117 5.325 17.1117C5.7375 17.1117 6.40547 16.7789 7.29609 15.2508C7.43203 15.2063 7.57266 15.1594 7.70859 15.1125C8.34609 14.8969 9.00703 14.6719 9.60469 14.5711C10.2656 14.925 11.018 15.1523 11.5289 15.1523C12.0352 15.1523 12.2344 14.8523 12.3094 14.6719C12.4406 14.3555 12.3773 13.957 12.1641 13.7438C11.8547 13.4391 11.1023 13.3594 9.93047 13.5047C9.35391 13.1531 8.97656 12.675 8.70234 11.9625ZM6.13125 15.5227C5.80547 15.9961 5.55937 16.2328 5.42578 16.3359C5.58281 16.0477 5.88984 15.743 6.13125 15.5227ZM8.18438 10.0031C8.30625 10.2117 8.28984 10.8422 8.19609 11.1609C8.08125 10.6945 8.06484 10.0336 8.13281 9.95625C8.15156 9.95859 8.16797 9.97266 8.18438 10.0031ZM8.14688 12.8273C8.39766 13.2609 8.71406 13.6336 9.06328 13.9102C8.55703 14.025 8.09531 14.2148 7.68281 14.3836C7.58437 14.4234 7.48828 14.4633 7.39453 14.5008C7.70625 13.9359 7.96641 13.2961 8.14688 12.8273ZM11.7938 14.3625C11.7961 14.3672 11.7984 14.3742 11.7844 14.3836H11.7797L11.775 14.3906C11.7563 14.4023 11.5641 14.5148 10.7367 14.1891C11.6883 14.1445 11.7914 14.3602 11.7938 14.3625ZM16.2797 5.26406L11.2359 0.220313C11.0953 0.0796875 10.9055 0 10.7062 0H0.75C0.335156 0 0 0.335156 0 0.75V20.25C0 20.6648 0.335156 21 0.75 21H15.75C16.1648 21 16.5 20.6648 16.5 20.25V5.79609C16.5 5.59687 16.4203 5.40469 16.2797 5.26406ZM14.7703 6.14062H10.3594V1.72969L14.7703 6.14062ZM14.8125 19.3125H1.6875V1.6875H8.76562V6.75C8.76562 7.01107 8.86934 7.26145 9.05394 7.44606C9.23855 7.63066 9.48893 7.73438 9.75 7.73438H14.8125V19.3125Z" fill="black"/>
</svg>
